<svg width="24" height="25" viewBox="0 0 24 25" fill="none" xmlns="http://www.w3.org/2000/svg">
<path d="M12 0.182129C18.6273 0.182129 24 5.55486 24 12.1821C24 18.8094 18.6273 24.1821 12 24.1821C5.37273 24.1821 0 18.8094 0 12.1821C0 5.55486 5.37273 0.182129 12 0.182129ZM16.1395 17.0738C16.3598 16.3969 17.3945 9.6474 17.5216 8.31704C17.5604 7.91449 17.4327 7.64667 17.184 7.52667C16.8824 7.38213 16.4362 7.45413 15.9175 7.64122C15.2067 7.89758 6.12218 11.7545 5.59745 11.9781C5.1 12.1898 4.62927 12.4199 4.62927 12.7543C4.62927 12.9894 4.76891 13.1214 5.15291 13.2583C5.55218 13.4007 6.55855 13.7056 7.15364 13.8698C7.72636 14.0279 8.37709 13.8905 8.74255 13.6636C9.12927 13.423 13.5976 10.4339 13.9178 10.1716C14.238 9.90977 14.4938 10.2452 14.232 10.5076C13.9702 10.7694 10.9036 13.7459 10.4989 14.1583C10.0075 14.6585 10.356 15.1772 10.686 15.385C11.0618 15.6223 13.7673 17.4365 14.1747 17.7278C14.5822 18.019 14.9951 18.151 15.3736 18.151C15.7522 18.1505 15.9513 17.6519 16.1395 17.0738Z" fill="#343434"/>
</svg>
