<svg width="24" height="27" viewBox="0 0 24 27" fill="none" xmlns="http://www.w3.org/2000/svg">
<path d="M23.3044 5.80333C22.8582 4.21164 21.9756 2.9516 20.6807 2.0603C19.0465 0.934443 17.1668 0.535157 15.5434 0.292967C13.2972 -0.0419529 11.2626 -0.0888637 9.32504 0.147871C7.50752 0.370424 6.13948 0.726072 4.89034 1.29991C2.44335 2.42358 0.97494 4.24328 0.526562 6.70664C0.308373 7.90231 0.162186 8.98344 0.0770926 10.0144C-0.119278 12.3981 0.0585466 14.508 0.621474 16.463C1.16913 18.3688 2.12698 19.7314 3.54957 20.626C3.91286 20.854 4.37542 21.0187 4.82489 21.178C5.04962 21.2577 5.26563 21.3362 5.45436 21.4191V25.2702C5.45436 25.7742 5.86238 26.1822 6.36639 26.1822C6.60422 26.1822 6.83223 26.0895 7.00241 25.9236L10.5556 22.4675C10.7105 22.2908 10.7105 22.2908 10.8698 22.2875C12.084 22.2635 13.3244 22.2166 14.5572 22.1501C16.0507 22.0682 17.781 21.9242 19.4108 21.2446C20.9022 20.6216 21.9909 19.6332 22.6444 18.3077C23.3262 16.9244 23.7321 15.4255 23.8837 13.7269C24.1499 10.7399 23.9601 8.14777 23.3044 5.80333ZM17.1177 17.171C16.7609 17.7546 16.2264 18.1583 15.598 18.4201C15.1387 18.6121 14.6696 18.5718 14.2168 18.3798C10.416 16.7717 7.43661 14.2363 5.46636 10.5937C5.06053 9.8431 4.77798 9.02599 4.45397 8.23287C4.38742 8.06923 4.39287 7.87831 4.36342 7.70049C4.39178 6.41863 5.37472 5.69751 6.36748 5.47932C6.74713 5.39532 7.08314 5.52951 7.36461 5.79897C8.14354 6.54299 8.75993 7.40484 9.22358 8.37142C9.4265 8.7958 9.33486 9.17108 8.98903 9.48636C8.91811 9.55182 8.84284 9.61291 8.76538 9.67073C7.97663 10.2642 7.86099 10.7126 8.281 11.6061C8.99666 13.1258 10.1847 14.1458 11.7218 14.7785C12.1266 14.9455 12.5084 14.8625 12.8182 14.5342C12.8597 14.4905 12.9066 14.448 12.9372 14.3978C13.5437 13.3865 14.4219 13.4869 15.2336 14.064C15.7671 14.4425 16.2842 14.8418 16.8122 15.228C17.6129 15.8182 17.6064 16.3724 17.1177 17.171ZM12.5575 6.70118C12.3535 6.70118 12.1484 6.71755 11.9477 6.75136C11.6073 6.80919 11.2866 6.579 11.2298 6.23862C11.1731 5.89934 11.4022 5.57751 11.7426 5.52078C12.0099 5.47714 12.2848 5.45423 12.5575 5.45423C15.2576 5.45423 17.4548 7.65139 17.4548 10.3515C17.4548 10.6253 17.4319 10.9002 17.3871 11.1675C17.3358 11.4719 17.0718 11.6879 16.7729 11.6879C16.7391 11.6879 16.7042 11.6857 16.6693 11.6792C16.33 11.6213 16.1009 11.3006 16.1576 10.9613C16.1915 10.7628 16.2078 10.5577 16.2078 10.3526C16.2078 8.33869 14.5703 6.70118 12.5575 6.70118ZM15.2729 10.753C15.2729 11.0966 14.9936 11.3759 14.6499 11.3759C14.3063 11.3759 14.027 11.0966 14.027 10.753C14.027 9.72201 13.1881 8.88307 12.1571 8.88307C11.8135 8.88307 11.5342 8.60379 11.5342 8.26014C11.5342 7.91649 11.8135 7.63721 12.1571 7.63721C13.8743 7.63612 15.2729 9.03471 15.2729 10.753ZM19.4686 11.5133C19.4032 11.8035 19.1468 11.9988 18.861 11.9988C18.8152 11.9988 18.7683 11.9934 18.7224 11.9835C18.3864 11.9072 18.1759 11.5733 18.2522 11.2384C18.3428 10.8402 18.3886 10.4289 18.3886 10.0166C18.3886 6.98592 15.9231 4.51929 12.8913 4.51929C12.4779 4.51929 12.0677 4.56511 11.6695 4.65566C11.3356 4.73312 10.9996 4.52147 10.9244 4.18546C10.848 3.84945 11.0585 3.51562 11.3946 3.44034C11.8833 3.32798 12.3873 3.27234 12.8935 3.27234C16.6115 3.27234 19.6367 6.29753 19.6367 10.0155C19.6367 10.5217 19.5799 11.0257 19.4686 11.5133Z" fill="#343434"/>
</svg>
