<svg width="16.000000" height="15.000000" viewBox="0 0 16 15" fill="none" xmlns="http://www.w3.org/2000/svg" xmlns:xlink="http://www.w3.org/1999/xlink">
	<desc>
			Created with Pixso.
	</desc>
	<defs/>
	<path id="Vector" d="M7.5 14.16C7.26 14.16 7.03 14.13 6.84 14.06C3.94 13.06 -0.67 9.53 -0.67 4.31C-0.67 1.65 1.48 -0.5 4.12 -0.5C5.41 -0.5 6.61 0 7.5 0.89C8.38 0 9.58 -0.5 10.87 -0.5C13.51 -0.5 15.66 1.66 15.66 4.31C15.66 9.54 11.05 13.06 8.15 14.06C7.96 14.13 7.73 14.16 7.5 14.16ZM4.12 0.63C2.11 0.63 0.47 2.28 0.47 4.31C0.47 9.5 5.46 12.39 7.21 12.99C7.35 13.03 7.65 13.03 7.78 12.99C9.53 12.39 14.53 9.51 14.53 4.31C14.53 2.28 12.89 0.63 10.88 0.63C9.72 0.63 8.65 1.17 7.96 2.11C7.75 2.4 7.26 2.4 7.05 2.11C6.34 1.17 5.28 0.63 4.12 0.63Z" fill="#343434" fill-opacity="1.000000" fill-rule="nonzero"/>
</svg>
